<svg width="419" height="108" viewBox="0 0 419 108" fill="none" xmlns="http://www.w3.org/2000/svg">
<path d="M102.097 48.1094C102.097 26.0684 119.018 8.58765 140.383 8.58765C161.892 8.58765 178.813 26.0684 178.813 48.1094C178.813 70.1504 161.892 87.6312 140.383 87.6312C119.018 87.6312 102.097 70.1504 102.097 48.1094ZM159.168 48.1094C159.168 36.2529 151.138 27.4365 140.383 27.4365C129.629 27.4365 121.599 36.2529 121.599 48.1094C121.599 60.118 129.629 68.7823 140.383 68.7823C151.138 68.7823 159.168 60.118 159.168 48.1094Z" fill="#170D51"/>
<path d="M186.125 10.1077H204.336V19.2281C210.216 11.7798 218.676 8.58765 227.279 8.58765C247.068 8.58765 259.686 26.2204 259.686 47.9574C259.686 69.9984 246.781 87.6312 226.993 87.6312C218.676 87.6312 210.502 84.135 205.34 77.4467V108H186.125V10.1077ZM240.042 48.1094C240.042 36.1009 232.728 27.4365 222.261 27.4365C212.51 27.4365 205.197 35.9489 205.197 48.1094C205.197 60.118 212.367 68.7824 222.261 68.7824C232.728 68.7824 240.042 60.118 240.042 48.1094Z" fill="#170D51"/>
<path d="M266.571 48.1094C266.571 26.2204 279.189 8.58765 298.978 8.58765C307.295 8.58765 316.185 12.0838 321.347 19.3801V10.1077H340.132V86.1111H321.347V76.9907C316.328 84.287 307.295 87.6312 298.978 87.6312C279.189 87.6312 266.571 69.9984 266.571 48.1094ZM320.917 48.1094C320.917 36.2529 313.747 27.4365 303.853 27.4365C293.529 27.4365 286.072 36.2529 286.072 48.1094C286.072 60.118 293.529 68.7823 303.853 68.7823C313.747 68.7823 320.917 60.27 320.917 48.1094Z" fill="#170D51"/>
<path d="M371.105 47.3498L347.445 10.1082H368.524L376.984 23.7888C379.565 28.045 383.15 35.6453 383.15 35.6453C383.15 35.6453 386.735 28.349 389.172 23.7888L397.776 10.1082H418.855L395.051 47.3498L418.855 86.1116H397.632L389.602 72.2789C386.878 67.5667 383.15 59.6624 383.15 59.6624C383.15 59.6624 379.708 67.2627 376.984 72.2789L368.524 86.1116H347.445L371.105 47.3498Z" fill="#170D51"/>
<path d="M55.9947 10.0706C55.9947 22.4211 48.4665 31.3515 37.712 31.3515C27.531 31.3515 20.1462 22.4211 20.1462 10.0706H0.788086C0.788086 35.7597 16.1312 54.3046 37.2818 54.3046C59.6871 54.3046 75.317 35.7597 75.317 10.0706H55.9947Z" fill="#170D51"/>
<path d="M55.2066 86.1107C55.2066 86.0347 55.2066 84.9707 55.2066 84.8947C55.1349 72.6201 47.6426 63.8037 36.9239 63.8037C26.8146 63.8037 19.4298 72.6201 19.3582 84.8947C19.3582 84.9707 19.3582 86.0347 19.3582 86.1107H0C0 86.0727 0 84.9707 0 84.9327C0.0716969 59.3195 15.379 40.8887 36.4937 40.8887C58.8273 40.8887 74.4572 59.3195 74.5289 84.8947C74.5289 84.9707 74.5289 86.0347 74.5289 86.1107H55.2066Z" fill="#170D51"/>
<path d="M38.0719 24.2451C44.3876 24.2451 49.5075 18.8177 49.5075 12.1226C49.5075 5.42745 44.3876 0 38.0719 0C31.7561 0 26.6362 5.42745 26.6362 12.1226C26.6362 18.8177 31.7561 24.2451 38.0719 24.2451Z" fill="#170D51"/>
</svg>
